<svg width="25" height="25" viewBox="0 0 25 25" fill="none" xmlns="http://www.w3.org/2000/svg">
<path fill-rule="evenodd" clip-rule="evenodd" d="M12.6426 1.48145C6.70552 1.48145 1.89258 6.29439 1.89258 12.2314C1.89258 18.1685 6.70552 22.9814 12.6426 22.9814C18.5797 22.9814 23.3926 18.1685 23.3926 12.2314C23.3926 6.29439 18.5797 1.48145 12.6426 1.48145ZM8.17302 12.2011C7.88013 11.9082 7.40526 11.9082 7.11236 12.2011C6.81947 12.494 6.81947 12.9688 7.11236 13.2617L10.1124 16.2617C10.4053 16.5546 10.8802 16.5546 11.173 16.2617L18.173 9.26178C18.4659 8.96888 18.4659 8.49401 18.173 8.20112C17.8801 7.90823 17.4053 7.90823 17.1124 8.20112L10.6427 14.6707L8.17302 12.2011Z" fill="white"/>
</svg>
